<svg width="13" height="24" viewBox="0 0 13 24" fill="none" xmlns="http://www.w3.org/2000/svg">
<g clip-path="url(#clip0_0_209)">
<path d="M7.60224 6.10104V9.68083H11.8557C12.3368 9.68083 12.7217 10.1042 12.664 10.5854L12.3561 13.0297C12.3176 13.4338 11.9519 13.7418 11.5477 13.7418H7.60224V23.9615C7.17883 24 6.75541 24 6.332 24C5.38893 24 4.44587 23.9038 3.5413 23.7306V13.7418H0.500401C0.230954 13.7418 0 13.5108 0 13.2414V10.1812C0 9.91179 0.230954 9.68083 0.500401 9.68083H3.5413V5.10024C3.5413 2.27105 5.81235 0 8.62229 0H12.1636C12.433 0 12.664 0.230954 12.664 0.500401V3.56055C12.664 3.82999 12.433 4.06095 12.1636 4.06095H9.64234C8.52606 4.06095 7.62149 4.98476 7.62149 6.10104H7.60224Z" fill="#CFA030"/>
</g>
<defs>
<clipPath id="clip0_0_209">
<rect width="12.664" height="24" fill="white"/>
</clipPath>
</defs>
</svg>
