<svg width="24" height="24" viewBox="0 0 24 24" fill="none" xmlns="http://www.w3.org/2000/svg">
<g clip-path="url(#clip0_0_200)">
<path d="M12 2.16503C15.2056 2.16503 15.5832 2.17343 16.8503 2.23217C18.0168 2.28252 18.6545 2.48392 19.0825 2.64336C19.6448 2.86154 20.0392 3.12168 20.4587 3.54126C20.8783 3.96084 21.1385 4.36364 21.3566 4.91748C21.5245 5.33706 21.7175 5.97483 21.7678 7.14965C21.8266 8.41678 21.835 8.7944 21.835 12C21.835 15.2056 21.8266 15.5832 21.7678 16.8503C21.7175 18.0168 21.5161 18.6545 21.3566 19.0825C21.1385 19.6448 20.8783 20.0392 20.4587 20.4587C20.0392 20.8783 19.6364 21.1385 19.0825 21.3566C18.6629 21.5245 18.0252 21.7175 16.8503 21.7678C15.5832 21.8266 15.2056 21.835 12 21.835C8.7944 21.835 8.41678 21.8266 7.14965 21.7678C5.98322 21.7175 5.34545 21.5161 4.91748 21.3566C4.35524 21.1385 3.96084 20.8783 3.54126 20.4587C3.12168 20.0392 2.86154 19.6364 2.64336 19.0825C2.47552 18.6629 2.28252 18.0252 2.23217 16.8503C2.17343 15.5832 2.16503 15.2056 2.16503 12C2.16503 8.7944 2.17343 8.41678 2.23217 7.14965C2.28252 5.98322 2.48392 5.34545 2.64336 4.91748C2.86154 4.35524 3.12168 3.96084 3.54126 3.54126C3.96084 3.12168 4.36364 2.86154 4.91748 2.64336C5.33706 2.47552 5.97483 2.28252 7.14965 2.23217C8.41678 2.17343 8.7944 2.16503 12 2.16503ZM12 0C8.74406 0 8.33287 0.0167832 7.04895 0.0755245C5.77343 0.134266 4.9007 0.335664 4.13706 0.629371C3.34825 0.93986 2.67692 1.34266 2.01399 2.01399C1.35105 2.67692 0.93986 3.34825 0.629371 4.13706C0.335664 4.9007 0.125874 5.77343 0.0755245 7.04895C0.0167832 8.33287 0 8.73566 0 12C0 15.2643 0.0167832 15.6671 0.0755245 16.951C0.134266 18.2266 0.335664 19.0993 0.629371 19.8629C0.93986 20.6517 1.34266 21.3231 2.01399 21.986C2.67692 22.649 3.34825 23.0601 4.13706 23.3706C4.9007 23.6643 5.77343 23.8741 7.04895 23.9245C8.33287 23.9832 8.73566 24 12 24C15.2643 24 15.6671 23.9832 16.951 23.9245C18.2266 23.8657 19.0993 23.6643 19.8629 23.3706C20.6517 23.0601 21.3231 22.6573 21.986 21.986C22.649 21.3231 23.0601 20.6517 23.3706 19.8629C23.6643 19.0993 23.8741 18.2266 23.9245 16.951C23.9832 15.6671 24 15.2643 24 12C24 8.73566 23.9832 8.33287 23.9245 7.04895C23.8657 5.77343 23.6643 4.9007 23.3706 4.13706C23.0601 3.34825 22.6573 2.67692 21.986 2.01399C21.3231 1.35105 20.6517 0.93986 19.8629 0.629371C19.0993 0.335664 18.2266 0.125874 16.951 0.0755245C15.6671 0.0167832 15.2643 0 12 0ZM12 5.84056C8.59301 5.84056 5.84056 8.6014 5.84056 12C5.84056 15.3986 8.6014 18.1594 12 18.1594C15.3986 18.1594 18.1594 15.3986 18.1594 12C18.1594 8.6014 15.3986 5.84056 12 5.84056ZM12 16.0028C9.79301 16.0028 7.9972 14.2154 7.9972 12C7.9972 9.78461 9.78461 7.9972 12 7.9972C14.2154 7.9972 16.0028 9.78461 16.0028 12C16.0028 14.2154 14.2154 16.0028 12 16.0028ZM19.8462 5.5972C19.8462 6.39441 19.2 7.04056 18.4028 7.04056C17.6056 7.04056 16.9594 6.39441 16.9594 5.5972C16.9594 4.8 17.6056 4.15385 18.4028 4.15385C19.2 4.15385 19.8462 4.8 19.8462 5.5972Z" fill="#CFA030"/>
</g>
<defs>
<clipPath id="clip0_0_200">
<rect width="24" height="24" fill="white"/>
</clipPath>
</defs>
</svg>
