<svg width="19" height="24" viewBox="0 0 19 24" fill="none" xmlns="http://www.w3.org/2000/svg">
<g clip-path="url(#clip0_0_202)">
<path d="M9.22785 0C4.13924 0 0 4.13924 0 9.22785C0 12.5089 0.972152 13.7848 5.64304 19.9519L5.7038 20.0203C6.48608 21.0608 7.37468 22.2304 8.39241 23.5823C8.58987 23.8481 8.90886 24 9.23544 24C9.56203 24 9.87342 23.8481 10.0785 23.5823C11.1114 22.2076 12.0152 21.0228 12.8127 19.9671C17.4987 13.7848 18.4709 12.5013 18.4709 9.22785C18.4557 4.13924 14.3165 0 9.22785 0ZM11.1266 18.6987L11.081 18.7595C10.5114 19.5038 9.9038 20.3165 9.22785 21.2051C8.56709 20.3241 7.9519 19.5266 7.40506 18.7899L7.31392 18.6759C2.89367 12.8506 2.0962 11.8025 2.0962 9.22785C2.0962 5.29367 5.29367 2.0962 9.22785 2.0962C13.162 2.0962 16.3595 5.29367 16.3595 9.22785C16.3595 11.7949 15.562 12.8506 11.1266 18.6987Z" fill="#CFA030"/>
<path d="M9.22795 4.08609C6.39504 4.08609 4.08618 6.39495 4.08618 9.22786C4.08618 12.0608 6.39504 14.3696 9.22795 14.3696C12.0609 14.3696 14.3697 12.0608 14.3697 9.22786C14.3697 6.39495 12.0609 4.08609 9.22795 4.08609ZM9.22795 12.2734C7.55707 12.2734 6.18998 10.9139 6.18998 9.23546C6.18998 7.55698 7.55707 6.19748 9.22795 6.19748C10.8988 6.19748 12.2659 7.55698 12.2659 9.23546C12.2659 10.9139 10.9064 12.2734 9.22795 12.2734Z" fill="#CFA030"/>
</g>
<defs>
<clipPath id="clip0_0_202">
<rect width="18.4557" height="24" fill="white"/>
</clipPath>
</defs>
</svg>
