<svg width="24" height="24" viewBox="0 0 24 24" fill="none" xmlns="http://www.w3.org/2000/svg">
<g clip-path="url(#clip0_0_205)">
<path d="M23.3575 10.7746C23.3575 11.4321 22.8195 11.9701 22.1545 11.9701C21.4895 11.9701 20.959 11.4321 20.959 10.7746C20.959 8.533 20.0847 6.4259 18.5007 4.84932C16.9241 3.26526 14.817 2.39103 12.5754 2.39103C11.9179 2.39103 11.3799 1.85305 11.3799 1.19552C11.3799 0.537983 11.9179 0 12.5754 0C15.4596 0 18.1644 1.1208 20.1968 3.15318C21.213 4.16936 22.005 5.34994 22.543 6.64259C23.081 7.93524 23.3575 9.3325 23.3575 10.7746Z" fill="#CFA030"/>
<path d="M20.3312 18.7024C20.5628 19.33 20.5628 19.9876 20.3387 20.6526C19.8605 22.0723 19.0012 23.0959 17.8505 23.6264C17.3125 23.873 16.7222 24 16.1095 24C15.4968 24 14.8019 23.8581 14.1295 23.5891C10.9464 22.2889 8.15187 20.4732 5.84303 18.1868C3.53418 15.8481 1.71102 13.061 0.410895 9.87051C-0.127088 8.54797 -0.13456 7.26279 0.373535 6.14199C0.904046 4.99878 1.92771 4.1395 3.34738 3.66129C4.01239 3.43713 4.66992 3.43713 5.29757 3.67624C6.67241 4.17686 9.3175 7.77835 9.39969 9.25781C9.47441 10.7298 8.3835 11.4695 7.92024 11.7908C7.65124 11.9701 7.33742 12.0374 7.01613 11.9776C6.7023 11.9178 6.43331 11.7385 6.25398 11.477C5.88038 10.9315 6.02235 10.1843 6.56781 9.81073C7.00865 9.50438 7.00865 9.42966 7.00865 9.38483C6.94141 8.82443 4.9688 6.14199 4.43829 5.91036C4.37104 5.88794 4.27391 5.873 4.10953 5.93277C3.33244 6.18682 2.79446 6.61272 2.55535 7.14323C2.32372 7.64386 2.34614 8.2715 2.63007 8.9664C3.81065 11.8581 5.45448 14.3836 7.51675 16.4757L7.53916 16.4982C9.63132 18.5529 12.1494 20.1893 15.0336 21.3699C15.7285 21.6463 16.3561 21.6762 16.8567 21.4446C17.3872 21.2055 17.8057 20.66 18.0672 19.8904C18.127 19.7186 18.112 19.6289 18.0821 19.5318C17.858 19.0237 15.1681 17.0586 14.5852 16.9913C14.5628 16.9913 14.4806 16.9988 14.1892 17.4322C13.8156 17.9776 13.0684 18.1196 12.523 17.746C11.9775 17.3724 11.8356 16.6252 12.2092 16.0797C12.5304 15.6165 13.2776 14.5106 14.7422 14.6003C15.4819 14.6451 16.7521 15.3251 17.9028 16.1694C19.046 17.0062 20.0771 18.015 20.3312 18.7024Z" fill="#CFA030"/>
<path d="M12.5754 7.18055C11.9179 7.18055 11.3799 6.64257 11.3799 5.98503C11.3799 5.3275 11.9179 4.78204 12.5754 4.78204C15.878 4.78204 18.5679 7.47196 18.5679 10.7746C18.5679 11.4321 18.0299 11.9701 17.3649 11.9701C16.6999 11.9701 16.1694 11.4321 16.1694 10.7746C16.1694 8.7945 14.5555 7.18055 12.5754 7.18055Z" fill="#CFA030"/>
</g>
<defs>
<clipPath id="clip0_0_205">
<rect width="23.3574" height="24" fill="white"/>
</clipPath>
</defs>
</svg>
