<svg width="20" height="24" viewBox="0 0 20 24" fill="none" xmlns="http://www.w3.org/2000/svg">
<g clip-path="url(#clip0_0_187)">
<path d="M19.8651 5.76923V8.67308C19.8651 8.90385 19.6728 9.09615 19.4421 9.07692C15.2305 8.96154 14.0574 7.01923 14.0574 7.01923V16.9423C14.0574 20.8269 10.9228 23.9808 7.01897 23.9808C2.88436 24 -0.423334 20.4038 0.0382041 16.1538C0.384358 12.9423 2.98051 10.3269 6.21128 9.96154C6.63436 9.92308 7.07667 9.90385 7.49974 9.96154C7.71128 9.96154 7.86513 10.1538 7.86513 10.3462V13.2885C7.86513 13.5192 7.63436 13.7115 7.40359 13.6731C7.11513 13.6346 6.8459 13.6731 6.5382 13.6731C5.07667 13.8654 3.90359 15.0769 3.73051 16.5385C3.48051 18.6154 5.13436 20.3654 7.19205 20.25C8.96128 20.1538 10.3267 18.6154 10.3267 16.8269V0.403846C10.3267 0.173077 10.4997 0 10.7305 0H14.0574C14.269 0 14.4613 0.153846 14.4805 0.365385C14.6151 2.67308 16.1728 5.17308 19.4421 5.36538C19.6728 5.36538 19.8459 5.53846 19.8459 5.76923H19.8651Z" fill="#CFA030"/>
</g>
<defs>
<clipPath id="clip0_0_187">
<rect width="19.8654" height="24" fill="white"/>
</clipPath>
</defs>
</svg>
