<svg width="50" height="61" viewBox="0 0 50 61" fill="none" xmlns="http://www.w3.org/2000/svg">
<g clip-path="url(#clip0_0_189)">
<path d="M30.7292 14.4332C29.3906 14.3985 28.6921 15.1889 28.6136 15.9513L32.6459 16.0486C32.6459 15.283 32.0259 14.4645 30.7292 14.4315V14.4332ZM30.7292 14.4332C29.3906 14.3985 28.6921 15.1889 28.6136 15.9513L32.6459 16.0486C32.6459 15.283 32.0259 14.4645 30.7292 14.4315V14.4332ZM30.7292 14.4332C29.3906 14.3985 28.6921 15.1889 28.6136 15.9513L32.6459 16.0486C32.6459 15.283 32.0259 14.4645 30.7292 14.4315V14.4332ZM30.7292 14.4332C29.3906 14.3985 28.6921 15.1889 28.6136 15.9513L32.6459 16.0486C32.6459 15.283 32.0259 14.4645 30.7292 14.4315V14.4332ZM30.7292 14.4332C29.3906 14.3985 28.6921 15.1889 28.6136 15.9513L32.6459 16.0486C32.6459 15.283 32.0259 14.4645 30.7292 14.4315V14.4332ZM30.7292 14.4332C29.3906 14.3985 28.6921 15.1889 28.6136 15.9513L32.6459 16.0486C32.6459 15.283 32.0259 14.4645 30.7292 14.4315V14.4332ZM30.7292 14.4332C29.3906 14.3985 28.6921 15.1889 28.6136 15.9513L32.6459 16.0486C32.6459 15.283 32.0259 14.4645 30.7292 14.4315V14.4332ZM30.7292 14.4332C29.3906 14.3985 28.6921 15.1889 28.6136 15.9513L32.6459 16.0486C32.6459 15.283 32.0259 14.4645 30.7292 14.4315V14.4332ZM30.7292 14.4332C29.3906 14.3985 28.6921 15.1889 28.6136 15.9513L32.6459 16.0486C32.6459 15.283 32.0259 14.4645 30.7292 14.4315V14.4332ZM30.7292 14.4332C29.3906 14.3985 28.6921 15.1889 28.6136 15.9513L32.6459 16.0486C32.6459 15.283 32.0259 14.4645 30.7292 14.4315V14.4332ZM30.7292 14.4332C29.3906 14.3985 28.6921 15.1889 28.6136 15.9513L32.6459 16.0486C32.6459 15.283 32.0259 14.4645 30.7292 14.4315V14.4332ZM30.7292 14.4332C29.3906 14.3985 28.6921 15.1889 28.6136 15.9513L32.6459 16.0486C32.6459 15.283 32.0259 14.4645 30.7292 14.4315V14.4332ZM18.3666 8.96814L18.2496 13.6527C18.8913 12.7683 20.0327 12.2567 21.3277 12.2881C23.6555 12.3442 24.5195 13.4943 24.471 15.4513L24.344 20.6952L21.9594 20.6391L22.073 15.9265C22.0981 14.9893 21.687 14.349 20.4855 14.3177C19.3191 14.2896 18.5087 14.9051 18.1962 15.8358L18.0792 20.5451L15.6729 20.489L15.9603 8.96814H2.69702V24.7891H50.0016V8.96814H18.3666ZM11.4016 20.6325C9.42474 20.5863 8.4221 19.5484 8.46053 17.938L8.56247 13.8194L6.51374 13.5389L6.54549 12.1808L8.6009 12.2303L8.65438 10.1413L11.0574 10.2007L11.0072 12.2897L13.838 12.3557L13.7996 13.9448L10.9688 13.8788L10.8736 17.6673C10.8602 18.3224 11.1359 18.8636 11.933 18.8818C12.7084 18.9032 13.2933 18.8009 13.8999 18.6062L14.321 20.3586C13.5372 20.5517 12.5847 20.6622 11.4016 20.6309V20.6325ZM34.9637 17.3901L28.622 17.2367C28.6537 18.2729 29.4892 19.0204 30.9247 19.0567C31.8571 19.0782 32.8097 18.9098 33.5182 18.5815L34.4423 20.4246C33.4965 20.8998 32.2883 21.1391 30.8144 21.1028C27.8483 21.0335 26.1404 19.3983 26.2089 16.702C26.2724 14.0784 27.885 12.4481 30.8328 12.5208C33.7622 12.5901 35.0389 14.288 34.9754 16.9116L34.9653 17.3901H34.9637ZM30.7292 14.4332C29.3906 14.3985 28.6921 15.1889 28.6136 15.9513L32.6459 16.0486C32.6459 15.283 32.0259 14.4645 30.7292 14.4315V14.4332ZM30.7292 14.4332C29.3906 14.3985 28.6921 15.1889 28.6136 15.9513L32.6459 16.0486C32.6459 15.283 32.0259 14.4645 30.7292 14.4315V14.4332ZM30.7292 14.4332C29.3906 14.3985 28.6921 15.1889 28.6136 15.9513L32.6459 16.0486C32.6459 15.283 32.0259 14.4645 30.7292 14.4315V14.4332ZM30.7292 14.4332C29.3906 14.3985 28.6921 15.1889 28.6136 15.9513L32.6459 16.0486C32.6459 15.283 32.0259 14.4645 30.7292 14.4315V14.4332ZM30.7292 14.4332C29.3906 14.3985 28.6921 15.1889 28.6136 15.9513L32.6459 16.0486C32.6459 15.283 32.0259 14.4645 30.7292 14.4315V14.4332ZM30.7292 14.4332C29.3906 14.3985 28.6921 15.1889 28.6136 15.9513L32.6459 16.0486C32.6459 15.283 32.0259 14.4645 30.7292 14.4315V14.4332ZM30.7292 14.4332C29.3906 14.3985 28.6921 15.1889 28.6136 15.9513L32.6459 16.0486C32.6459 15.283 32.0259 14.4645 30.7292 14.4315V14.4332ZM30.7292 14.4332C29.3906 14.3985 28.6921 15.1889 28.6136 15.9513L32.6459 16.0486C32.6459 15.283 32.0259 14.4645 30.7292 14.4315V14.4332ZM30.7292 14.4332C29.3906 14.3985 28.6921 15.1889 28.6136 15.9513L32.6459 16.0486C32.6459 15.283 32.0259 14.4645 30.7292 14.4315V14.4332ZM30.7292 14.4332C29.3906 14.3985 28.6921 15.1889 28.6136 15.9513L32.6459 16.0486C32.6459 15.283 32.0259 14.4645 30.7292 14.4315V14.4332ZM30.7292 14.4332C29.3906 14.3985 28.6921 15.1889 28.6136 15.9513L32.6459 16.0486C32.6459 15.283 32.0259 14.4645 30.7292 14.4315V14.4332Z" fill="#FCB002"/>
<path d="M0.151785 26.6884L0.0949688 32.7227H1.9933V30.5578H4.49155V32.7227H7.42928V34.3744H4.49155V38.3098C4.49155 38.9847 4.79234 39.5408 5.61785 39.5408C6.44335 39.5408 7.02823 39.422 7.65153 39.2009L8.1328 41.0094C7.32902 41.2305 6.33975 41.3658 5.11485 41.3658C3.05944 41.3658 1.9933 40.313 1.9933 38.6432V34.3711L0.0799292 34.1582L-0.00195312 42.506L47.2943 43.2749L47.4463 27.454L0.151785 26.6884ZM12.0398 41.1133H9.54151V32.7243H12.0398V41.1133ZM12.0398 31.2921H9.54151V28.8285H12.0398V31.2921ZM28.7838 30.8762C28.1605 30.6386 27.5372 30.5198 26.7318 30.5198C25.8845 30.5198 25.5019 31.1353 25.5019 31.7689V32.7243H28.443V34.3761H25.5019V41.115H23.0254V34.3761H18.4366V41.115H15.9601V34.3761L13.8278 34.1384V32.7243H15.9601V31.434C15.9601 29.7657 17.0897 28.6915 19.1635 28.6915C20.5522 28.6915 21.4161 28.8318 22.1614 29.0694L21.7186 30.8779C21.0953 30.6403 20.472 30.5215 19.6665 30.5215C18.8193 30.5215 18.4366 31.137 18.4366 31.7706V32.726H23.0254V31.4356C23.0254 29.7674 24.155 28.6932 26.2288 28.6932C27.5957 28.6932 28.4613 28.8335 29.2267 29.0711L28.7838 30.8795V30.8762ZM32.507 41.1133H30.0522V32.7243H32.507V41.1133ZM32.507 31.2921H30.0522V28.8285H32.507V31.2921ZM44.3799 41.1133H41.9067V36.2225C41.9067 35.2506 41.4639 34.5922 40.2139 34.5922C38.964 34.5922 38.1836 35.2506 37.8795 36.2225V41.1133H35.3846V32.7243H37.2562L37.4968 34.0955C38.1418 33.1402 39.4703 32.4653 40.859 32.4653C43.3138 32.4653 44.3816 33.6368 44.3816 35.6664V41.1133H44.3799Z" fill="#FCB002"/>
<path d="M30.3851 52.578C30.4268 53.8767 29.6765 54.936 28.1843 54.9822C26.6953 55.0284 25.8598 54.0169 25.818 52.7183C25.7796 51.423 26.5483 50.3603 28.0389 50.3141C29.5278 50.2679 30.3449 51.2827 30.3851 52.578Z" fill="#FCB002"/>
<path d="M15.0232 45.179L15.1752 49.989C15.7768 49.093 16.6424 48.527 17.996 48.4841C20.5962 48.4033 22.0533 50.3174 22.1302 52.8321C22.2087 55.3237 20.9354 57.3417 18.2216 57.4226C16.7293 57.4721 15.6214 56.883 14.9413 55.9078L14.8109 57.2691L13.0363 57.3252L12.6536 45.1774H2.29297V60.9983H49.5975V45.1774H15.0232V45.179ZM28.253 57.1157C25.2351 57.2097 23.5372 55.5233 23.452 52.7908C23.3635 50.0583 24.9543 48.2713 27.9723 48.1789C30.9902 48.0848 32.6696 49.7712 32.7549 52.5037C32.8401 55.2395 31.2709 57.0233 28.2513 57.114L28.253 57.1157ZM40.9514 56.4688L38.3713 53.4525L38.1975 53.4558L35.8129 56.6256L34.0733 56.6784L34.0165 54.8237L36.3259 52.3156L34.0198 50.1111L33.9597 48.2531L35.7177 48.2003L38.124 51.083L38.2978 51.0764L40.5153 48.0534L42.2733 47.9973L42.3334 49.8553L40.151 52.2001L42.6141 54.5581L42.6743 56.416L40.9531 56.4688H40.9514ZM44.8701 56.3467L44.7949 53.9921L47.0525 53.9261L47.1227 56.2774L44.8684 56.3467H44.8701Z" fill="#FCB002"/>
<path d="M38.4716 7.06727H36.2992V3.92883C36.2992 2.94374 35.4904 2.14675 34.4944 2.14675H17.3978C16.4001 2.14675 15.593 2.94539 15.593 3.92883V7.06727H13.4189V3.63347C13.4189 1.62697 15.0666 0 17.0986 0H34.7936C36.8256 0 38.4733 1.62697 38.4733 3.63347V7.06727H38.4716Z" fill="#FCB002"/>
<path d="M19.7655 52.9031C19.8005 54.2017 19.0319 55.2643 17.5229 55.3105C17.456 55.3138 17.3925 55.3138 17.3307 55.3072C17.2889 55.3072 17.2455 55.3072 17.2037 55.3006C17.0132 55.2874 16.8311 55.2511 16.669 55.2033C16.6155 55.1901 16.5587 55.1686 16.5052 55.1472C16.4484 55.1224 16.3983 55.101 16.3464 55.0779C15.5811 54.7033 15.0881 53.9063 15.0881 52.979C15.0881 51.6985 16.0624 50.659 17.3107 50.6491H17.3324C17.3457 50.6458 17.3641 50.6458 17.3792 50.6458C18.8881 50.5963 19.7203 51.6111 19.7671 52.9064L19.7655 52.9031Z" fill="#FCB002"/>
<path d="M17.2037 55.3006C17.0199 55.294 16.8394 55.2626 16.6689 55.2032C16.8327 55.2527 17.0132 55.2874 17.2037 55.3006Z" fill="#FCB002"/>
</g>
<defs>
<clipPath id="clip0_0_189">
<rect width="50" height="61" fill="white"/>
</clipPath>
</defs>
</svg>
